<svg id="Layer_1" data-name="Layer 1" xmlns="http://www.w3.org/2000/svg" xmlns:xlink="http://www.w3.org/1999/xlink" viewBox="0 0 168.98 308.12"><defs><style>.cls-1{fill:none;}.cls-2{clip-path:url(#clip-path);}.cls-3{fill:#407159;}.cls-4{clip-path:url(#clip-path-2);}.cls-5{fill:#33654d;}</style><clipPath id="clip-path"><path class="cls-1" d="M169,308.12v-290S168.17,0,150.91,0H18.07S0,.29,0,18.07V308.12Z"/></clipPath><clipPath id="clip-path-2"><rect class="cls-1" x="-2.11" y="-2.84" width="173.2" height="310.96"/></clipPath></defs><g class="cls-2"><rect class="cls-3" x="-2.11" y="-2.84" width="173.2" height="310.96"/><g class="cls-4"><path class="cls-5" d="M185.76,177.47a325.52,325.52,0,0,1,4,107.44c-1.53,11.81-4,24.12-11.57,33.3-8.2,9.92-21.14,14.6-33.75,17.15a146.93,146.93,0,0,1-108.52-21c-3.47-2.28-7.16-5.24-7.51-9.37-.55-6.36,6.84-10.27,13.12-11.43,12.84-2.38,26.13-.77,39-2.71s26.54-8.87,30.33-21.37c2.11-6.95,1.09-15.21,5.81-20.73,6.37-7.45,20.24-6.14,24.58-14.92,4.93-10-7.85-21.9-3.65-32.19,2.68-6.59,10.7-8.69,17.1-11.8,15-7.32,24.22-25.08,21.5-41.58Z"/><path class="cls-5" d="M-22.15,230.31q.9-106.63,1.79-213.29C-20.28,7.32-19.31-4-11.1-9.21c4.77-3,10.77-3,16.4-2.87l148,3c6.22.13,12.61.29,18.33,2.73s10.68,7.74,10.79,14c.09,4.93-2.87,9.52-6.71,12.61s-8.51,4.93-13.1,6.73L129.82,39.86c-12.62,5-25.26,9.91-38.06,14.39C82.35,57.53,71.69,61.63,68.21,71s1.91,20.32-1.62,29.67c-4.49,11.9-21,15.52-25.84,27.3-5.92,14.54,9.52,32.47,1.37,45.9-4.63,7.63-15.12,10-20,17.44C15,202,23,216.8,19.37,229.16,16.09,240.42,2,247.06-8.79,242.41Z"/></g></g></svg>