<svg id="Layer_1" data-name="Layer 1" xmlns="http://www.w3.org/2000/svg" xmlns:xlink="http://www.w3.org/1999/xlink" viewBox="0 0 120.91 104.27"><defs><style>.cls-1,.cls-27,.cls-35{fill:#fff;}.cls-2{fill:#1e1d1b;}.cls-3{fill:url(#linear-gradient);}.cls-4{fill:url(#linear-gradient-2);}.cls-5{fill:url(#linear-gradient-3);}.cls-6{fill:url(#linear-gradient-4);}.cls-7{fill:url(#linear-gradient-5);}.cls-8{fill:url(#linear-gradient-6);}.cls-9{fill:url(#linear-gradient-7);}.cls-10{fill:url(#linear-gradient-8);}.cls-11,.cls-17{opacity:0.8;}.cls-12{fill:#98ad3c;}.cls-13{fill:url(#linear-gradient-9);}.cls-14{fill:url(#linear-gradient-10);}.cls-15{fill:url(#linear-gradient-11);}.cls-16{fill:none;}.cls-17{fill:#97ac3f;}.cls-18{fill:url(#linear-gradient-12);}.cls-19{fill:url(#radial-gradient);}.cls-20{opacity:0.5;}.cls-21{fill:#ece324;}.cls-22{fill:url(#radial-gradient-2);}.cls-23{fill:url(#linear-gradient-13);}.cls-24{fill:url(#radial-gradient-3);}.cls-25{fill:url(#radial-gradient-4);}.cls-26{fill:url(#radial-gradient-5);}.cls-27{font-size:11.13px;font-family:Knigsberg, Königsberg;}.cls-28{letter-spacing:-0.05em;}.cls-29{letter-spacing:-0.05em;}.cls-30{letter-spacing:-0.02em;}.cls-31{letter-spacing:-0.21em;}.cls-32{letter-spacing:-0.03em;}.cls-33{letter-spacing:-0.03em;}.cls-34{letter-spacing:0em;}.cls-35{font-size:7.67px;font-family:Amsterdam-FourSlant_ttf, Amsterdam;}</style><linearGradient id="linear-gradient" x1="-341.43" y1="261.91" x2="-333.22" y2="254.81" gradientTransform="matrix(-0.89, 0.46, 0.46, 0.89, -355.93, -28.63)" gradientUnits="userSpaceOnUse"><stop offset="0" stop-color="#a3cf99"/><stop offset="0.14" stop-color="#97c38f"/><stop offset="0.39" stop-color="#78a373"/><stop offset="0.73" stop-color="#467047"/><stop offset="1" stop-color="#194220"/></linearGradient><linearGradient id="linear-gradient-2" x1="-342.87" y1="260.27" x2="-327.93" y2="250.93" xlink:href="#linear-gradient"/><linearGradient id="linear-gradient-3" x1="-220.74" y1="23.65" x2="-223.43" y2="16.54" gradientTransform="matrix(-1, -0.07, -0.07, 1, -149.45, 6.95)" xlink:href="#linear-gradient"/><linearGradient id="linear-gradient-4" x1="69.58" y1="42.61" x2="76.47" y2="32.11" gradientUnits="userSpaceOnUse"><stop offset="0" stop-color="#a3cf99"/><stop offset="0.1" stop-color="#97c38f"/><stop offset="0.27" stop-color="#78a373"/><stop offset="0.5" stop-color="#467047"/><stop offset="0.68" stop-color="#194220"/><stop offset="0.84" stop-color="#17351d"/><stop offset="0.99" stop-color="#142318"/></linearGradient><linearGradient id="linear-gradient-5" x1="-222.97" y1="-15.67" x2="-214.29" y2="-22.77" gradientTransform="matrix(-0.99, -0.13, -0.13, 0.99, -145.52, 15.62)" xlink:href="#linear-gradient"/><linearGradient id="linear-gradient-6" x1="-216.59" y1="-21.51" x2="-207.41" y2="-27.47" gradientTransform="matrix(-0.99, -0.13, -0.13, 0.99, -145.52, 15.62)" xlink:href="#linear-gradient-4"/><linearGradient id="linear-gradient-7" x1="-68.11" y1="-147.66" x2="-59.92" y2="-154.75" gradientTransform="matrix(-0.9, -0.44, -0.44, 0.9, -74.49, 148.22)" xlink:href="#linear-gradient"/><linearGradient id="linear-gradient-8" x1="-69.4" y1="-149.38" x2="-54.73" y2="-158.55" gradientTransform="matrix(-0.9, -0.44, -0.44, 0.9, -74.49, 148.22)" xlink:href="#linear-gradient-4"/><linearGradient id="linear-gradient-9" x1="-149.09" y1="-41.52" x2="-148.66" y2="-41.52" gradientTransform="matrix(-1.02, -0.21, -0.19, 0.9, -119.43, 38.81)" gradientUnits="userSpaceOnUse"><stop offset="0" stop-color="#d3d57f"/><stop offset="0.6" stop-color="#adb867"/></linearGradient><linearGradient id="linear-gradient-10" x1="48.26" y1="24.73" x2="55.13" y2="16.11" xlink:href="#linear-gradient-4"/><linearGradient id="linear-gradient-11" x1="40.06" y1="28.63" x2="52.71" y2="20.56" xlink:href="#linear-gradient-4"/><linearGradient id="linear-gradient-12" x1="288.74" y1="207.94" x2="289.17" y2="207.94" gradientTransform="matrix(-0.22, -0.98, -0.98, 0.22, 315.9, 250.39)" xlink:href="#linear-gradient-9"/><radialGradient id="radial-gradient" cx="131.7" cy="769.24" r="2.75" gradientTransform="matrix(0.4, 1.02, 1.02, -0.4, -778.3, 204.11)" gradientUnits="userSpaceOnUse"><stop offset="0" stop-color="#fff"/><stop offset="0.04" stop-color="#fcebeb"/><stop offset="0.15" stop-color="#f4b6b8"/><stop offset="0.27" stop-color="#ee888b"/><stop offset="0.38" stop-color="#e96267"/><stop offset="0.5" stop-color="#e4454b"/><stop offset="0.61" stop-color="#e13137"/><stop offset="0.72" stop-color="#e0242b"/><stop offset="0.83" stop-color="#df2027"/><stop offset="1" stop-color="#83171a"/></radialGradient><radialGradient id="radial-gradient-2" cx="133.85" cy="773.44" r="2.52" xlink:href="#radial-gradient"/><linearGradient id="linear-gradient-13" x1="78.89" y1="38.3" x2="79.32" y2="38.3" gradientTransform="matrix(1, 0, 0, 1, 0, 0)" xlink:href="#linear-gradient-9"/><radialGradient id="radial-gradient-3" cx="136.66" cy="771.89" r="2.29" xlink:href="#radial-gradient"/><radialGradient id="radial-gradient-4" cx="141.44" cy="768.17" r="2.25" gradientTransform="matrix(0.41, 1.01, 1.01, -0.41, -779.16, 206.1)" xlink:href="#radial-gradient"/><radialGradient id="radial-gradient-5" cx="134.92" cy="770.55" r="2.06" xlink:href="#radial-gradient"/></defs><circle class="cls-1" cx="60.92" cy="30.25" r="30.25"/><path class="cls-2" d="M52.73,54.4s2.64-5.22,5.48-4.14c0,0,.17-3.25,3.26-3.41,0,0-.55-3.54,2.26-5.09,0,0-1.5-3.69,1.42-5.28,0,0-4.13-2.63-3.75-4.69C61.4,31.79,53,49,52.73,54.4Z"/><path class="cls-2" d="M52.77,54.11s.42-7.58-2.09-8.18c0,0,1.72-2.65-.38-4.22,0,0,3-1.83,1.65-4.19l0-.07s4.18-1,2.67-5.12c0,0,3,2,6.5-.82l.53-.21S53.33,48.9,52.77,54.11Z"/><path class="cls-2" d="M83.26,47S75.82,44.31,74,46a3.51,3.51,0,0,0-4.39-1.32s-1.26-3.55-4.81-2.81c0,0-.47-3.63-3.8-3.44,0,0,1.81-4.55.3-6C61.31,32.38,78.62,39.14,83.26,47Z"/><path class="cls-2" d="M78.76,10.21c-2.47,3.61-1.21,8.94-1.21,8.94C74.14,21.27,76.3,24,76.3,24c-3.81.71-2.9,5.13-2.9,5.13a5.84,5.84,0,0,0-6.21,3.22,6.08,6.08,0,0,0-7.79-1.26L59.32,31C66,21,76.37,13.12,78.75,10.22Z"/><path class="cls-2" d="M57.65,23.75C61.8,23.36,60.33,18,60.33,18c3.85.2,4.77-4.55,4.77-4.55C68.51,14.56,69.54,11,69.54,11c2,1.92,9-.67,9.21-.8C76.37,13.12,65,23,60.15,31.46l-1-.71C60.93,26.87,57.65,23.75,57.65,23.75Z"/><path class="cls-2" d="M35.48,38.23s5.42-.47,6.19,2c0,0,3.31-1.9,4.58.08,0,0,2.71-2.36,5.44-1.23,0,0,2.21-3.2,5-1.56,0,0-.35-4.88,1.53-5.8C58.19,31.76,41.22,34,35.48,38.23Z"/><path class="cls-2" d="M35.74,38.1s5.53-3.8,4.51-6.17c0,0,3.57.13,3.16-2.83,0,0,3.56.69,4.27-2.35l0-.07s3.52,2.3,6-.07c0,0,.21,3.56,4.53,4.74l.49.29S41.83,34,35.74,38.1Z"/><path class="cls-2" d="M49.93,13.54c.73,2.9,4.6,1.54,4.6,1.54-.05,3.35,4.41,3.41,4.41,3.41-.36,3.11,2.86,6.33,2.86,6.33a6.75,6.75,0,0,0-2.12,7.05c-4.48-9.13-15.16-17.44-17.86-20C44.63,13.83,49.93,13.54,49.93,13.54Z"/><path class="cls-2" d="M42.65,19.31c1.81-2.4-.9-7.47-.9-7.47l.07.05c2.7,2.54,14.09,11.58,17.86,20,.09.33.16.53.16.53l-.21.1C57,30.19,52.86,33,52.86,33l-.16-.24c1.67-4.17-4-4.11-4-4.11.91-2.93-3.79-4.81-3.79-4.81C46.28,21.43,42.65,19.31,42.65,19.31Z"/><path class="cls-3" d="M52.55,54s2.64-5.22,5.49-4.13c0,0,.16-3.26,3.26-3.41,0,0-.55-3.54,2.26-5.1,0,0-1.5-3.69,1.42-5.28,0,0-4.13-2.62-3.76-4.69C61.22,31.37,52.83,48.56,52.55,54Z"/><path class="cls-4" d="M52.59,53.69s.43-7.58-2.08-8.17c0,0,1.71-2.66-.39-4.22,0,0,3-1.84,1.66-4.19l0-.07s4.17-.95,2.67-5.13c0,0,3,2,6.5-.81l.52-.22S53.15,48.48,52.59,53.69Z"/><path class="cls-2" d="M83.05,46.82s-2.81-5.74-1.87-8c0,0-3.86-2.09-3.72-5.11A3.83,3.83,0,0,1,73,30.56v-.07s-3.62,1.35-5.81-1.66c0,0-1.28,3.34-5.75,3.15l-.56.13S77.39,39.14,83.05,46.82Z"/><path class="cls-5" d="M83.19,46.66s-7.44-2.72-9.25-1.08a3.49,3.49,0,0,0-4.38-1.31s-1.27-3.55-4.82-2.81c0,0-.46-3.63-3.8-3.45,0,0,1.82-4.54.3-6C61.24,32,78.56,38.78,83.19,46.66Z"/><path class="cls-6" d="M83,46.45s-2.82-5.73-1.88-8c0,0-3.86-2.08-3.72-5.1a3.82,3.82,0,0,1-4.48-3.11l0-.08s-3.62,1.35-5.81-1.65c0,0-1.28,3.33-5.75,3.14l-.56.14S77.32,38.78,83,46.45Z"/><path class="cls-7" d="M78.67,9.84c-2.48,3.6-1.22,8.93-1.22,8.93-3.4,2.12-1.25,4.88-1.25,4.88-3.81.7-2.9,5.12-2.9,5.12A5.84,5.84,0,0,0,67.09,32a6.07,6.07,0,0,0-7.78-1.26l-.08-.12c6.71-10,17-17.87,19.43-20.77Z"/><path class="cls-8" d="M57.55,23.37c4.16-.39,2.69-5.76,2.69-5.76,3.84.21,4.76-4.55,4.76-4.55,3.42,1.12,4.44-2.41,4.44-2.41,2.06,1.91,9-.68,9.22-.81-2.39,2.9-13.75,12.81-18.61,21.25l-1-.72C60.84,26.49,57.55,23.37,57.55,23.37Z"/><path class="cls-9" d="M35.38,37.92s5.42-.47,6.19,2c0,0,3.31-1.9,4.58.08,0,0,2.71-2.36,5.44-1.22,0,0,2.21-3.2,5-1.56,0,0-.34-4.88,1.54-5.81C58.09,31.44,41.12,33.66,35.38,37.92Z"/><path class="cls-10" d="M35.63,37.78s5.53-3.8,4.51-6.17c0,0,3.58.14,3.17-2.82,0,0,3.56.69,4.27-2.36l0-.06s3.52,2.3,6-.07c0,0,.21,3.55,4.53,4.73l.48.3S41.73,33.71,35.63,37.78Z"/><g class="cls-11"><path class="cls-12" d="M37.89,36.79a35.14,35.14,0,0,1,5.55-2.56,6.15,6.15,0,0,1-2-1.64,4.15,4.15,0,0,0,2.41,1.49c1.14-.43,2.8-.84,3.93-1.18-1.91-.74-3.57-3.37-3.57-3.37,1.75,2.74,3.53,3.16,4,3.24,1.54-.45,1.6-.52,2.86-.8-.58-.21-1.83-.95-2.84-3.65,0,0,1.5,3.11,3.27,3.55,2-.43,4.05-.74,4.05-.74l-.39.6-1,.14a36.16,36.16,0,0,0-2.34,5.41c.88-3.89,1.9-5.11,2-5.37-.93.12-3.32.62-4.22.81-2.11,1.51-2.71,5.72-2.71,5.72a7.76,7.76,0,0,1,2-5.58c-1.6.35-3,.86-4.46,1.3a11.73,11.73,0,0,0-1.86,3.94,7.42,7.42,0,0,1,1.51-3.83A30.9,30.9,0,0,0,37.89,36.79Z"/><path class="cls-13" d="M39.92,32.32l.37.47C40.06,32.52,39.92,32.32,39.92,32.32Z"/></g><path class="cls-14" d="M50,13.16c.73,2.9,4.6,1.54,4.6,1.54,0,3.35,4.41,3.4,4.41,3.4-.36,3.12,2.86,6.34,2.86,6.34a6.77,6.77,0,0,0-2.12,7c-4.48-9.13-15.15-17.44-17.86-20C44.71,13.45,50,13.16,50,13.16Z"/><path class="cls-15" d="M42.73,18.93c1.81-2.4-.9-7.47-.9-7.47l.07,0c2.71,2.54,14.09,11.58,17.86,20,.09.33.16.53.16.53l-.21.1c-2.68-2.31-6.77.48-6.77.48l-.16-.24c1.67-4.17-4-4.11-4-4.11.91-2.94-3.79-4.81-3.79-4.81C46.36,21.05,42.73,18.93,42.73,18.93Z"/><path class="cls-16" d="M64.71,24.84A9.27,9.27,0,0,1,69,26.61s-2.1-1.95-4-2.19Z"/><path class="cls-16" d="M68.56,20.83a9.23,9.23,0,0,1,4.24,1.78s-2.1-2-4-2.19Z"/><path class="cls-16" d="M68.63,20.82a9.21,9.21,0,0,0-1.76-4.25s1.94,2.12,2.17,4Z"/><path class="cls-16" d="M72,16.83A6,6,0,0,1,74.78,18a5.93,5.93,0,0,0-2.56-1.41Z"/><path class="cls-16" d="M72.08,16.82a6,6,0,0,0-1.14-2.75,5.92,5.92,0,0,1,1.41,2.57Z"/><path class="cls-16" d="M64.87,24.87a9.25,9.25,0,0,0-1.75-4.25s1.94,2.11,2.17,4Z"/><path class="cls-17" d="M44.3,14.2a25.33,25.33,0,0,1,4.24,3.05,5.61,5.61,0,0,1,.77-2.47,3.72,3.72,0,0,0-.48,2.73c.91.8,2.07,2,2.88,2.87-.07-2,2-4.25,2-4.25-2,2.68-1.84,4.12-1.71,4.59,1.1,1.15,1.79,1.91,2.6,2.88,0-.59.18-2,2.44-4,0,0-2.47,2.62-2.16,4.35,1.27,1.55,2.4,3.25,2.4,3.25l-.34.38-1-1.36c-1.5-.18-4.53,1.45-4.53,1.45A7.17,7.17,0,0,1,55.84,26c-.51-.75-2.49-3.06-3.05-3.76-2.31-1.36-6.39.61-6.39.61,3.23-1.95,5.52-1.29,6-1.13-1-1.24-2.38-2.36-3.42-3.41a14.06,14.06,0,0,0-4.7,0,8.94,8.94,0,0,1,4.44-.3C45.44,14.78,44.3,14.2,44.3,14.2Z"/><path class="cls-18" d="M49.6,14.08c-.12.18-.21.35-.31.51C49.46,14.28,49.6,14.08,49.6,14.08Z"/><path class="cls-19" d="M59.18,31.13a3,3,0,1,0-3.91-1.69A3,3,0,0,0,59.18,31.13Z"/><g class="cls-20"><path class="cls-21" d="M63.14,26.25S71.6,15.43,77.89,10.82c0,0-11.64,11-13.77,15.27Z"/><path class="cls-21" d="M70.54,12.46s2,2,1.57,3.4l.35-.3A6.13,6.13,0,0,0,70.54,12.46Z"/><path class="cls-21" d="M68.77,19.31s.84-1.59-3-4.95c0,0,3.33,2.35,3.48,4.51Z"/><path class="cls-21" d="M65.62,23.21s.58-1.78-3.92-4.43c0,0,4,2.77,3.63,4.65Z"/><path class="cls-21" d="M70.32,18.19s1.81-.69,6-.1c0,0-4.68-.33-6.51.5Z"/><path class="cls-21" d="M66.56,22.46s3-1.36,8.15.65c0,0-5.85-1.79-8.59-.05Z"/><path class="cls-21" d="M64.64,25.74l.25-.29s2-.3,5.64,1.48C70.53,26.93,66.48,25.3,64.64,25.74Z"/></g><path class="cls-22" d="M64.23,31.39a2.76,2.76,0,1,0-3.59-1.55A2.75,2.75,0,0,0,64.23,31.39Z"/><g class="cls-11"><path class="cls-12" d="M80.37,43.29a24.56,24.56,0,0,0-3.91-3.46,5.62,5.62,0,0,0,2.24-1.29,3.73,3.73,0,0,1-2.56,1.06c-1-.7-2-1.37-3-2,1.94-.37,3.7-2.92,3.7-2.92-2.18,2.53-3.62,2.71-4.11,2.68-1.36-.82-2.68-1.53-3.81-2.1.58-.09,1.9-.61,3.38-3.26,0,0-2,3-3.77,3.06-1.8-.9-3.71-1.63-3.71-1.63l-.29.42,1.54.64c.51,1.41-.42,4.73-.42,4.73a7.15,7.15,0,0,0,.69-4.62c.85.33,1.68.7,2.5,1.09,1.83,2,.8,6.37.8,6.37,1.19-3.58,0-5.67-.2-6.07,1.43.72,2.79,1.51,4,2.29a13.85,13.85,0,0,1,1,4.6,9,9,0,0,0-.69-4.41A60.44,60.44,0,0,1,80.37,43.29Z"/><path class="cls-23" d="M79.32,38.09a5.61,5.61,0,0,1-.43.42A5.66,5.66,0,0,0,79.32,38.09Z"/></g><path class="cls-12" d="M53.44,51a36.11,36.11,0,0,1,1.47-5.93,6,6,0,0,1-2.55.57A4.08,4.08,0,0,0,55,44.67c.37-1.15,1.09-2.71,1.54-3.8-1.78,1-4.68.39-4.68.39,3.23.34,4.49-.49,4.86-.83.61-1.49.6-1.57,1.16-2.73-.52.32-1.88.83-4.62-.07,0,0,3.37.78,4.82-.33.91-1.83,2-3.62,2-3.62l.23.67-.55.91a35.84,35.84,0,0,0,2.75,5.21c-2.48-3.12-2.79-4.68-2.9-4.95-.48.79-1.59,3-2,3.8C57.44,41.91,60.35,45,60.35,45a7.79,7.79,0,0,1-3.08-5.08c-.72,1.46-1.23,2.9-1.77,4.28a11.5,11.5,0,0,0,1.9,3.92,7.53,7.53,0,0,1-2-3.58A31,31,0,0,0,53.44,51Z"/><path class="cls-24" d="M63.68,34.64a2.51,2.51,0,1,0-3.25-1.41A2.5,2.5,0,0,0,63.68,34.64Z"/><path class="cls-25" d="M59.17,34.51A2.46,2.46,0,1,0,56,33.16,2.45,2.45,0,0,0,59.17,34.51Z"/><path class="cls-26" d="M61.52,33.18a2.26,2.26,0,1,0-2.93-1.27A2.26,2.26,0,0,0,61.52,33.18Z"/><text class="cls-27" transform="translate(0 85.16)">GREENS I<tspan class="cls-28" x="44.72" y="0">N</tspan><tspan class="cls-29" x="51.73" y="0">T</tspan><tspan x="58.06" y="0">ER</tspan><tspan class="cls-30" x="70.74" y="0">N</tspan><tspan class="cls-31" x="78.03" y="0">A</tspan><tspan class="cls-29" x="84.01" y="0">T</tspan><tspan class="cls-32" x="90.34" y="0">I</tspan><tspan class="cls-33" x="92.49" y="0">O</tspan><tspan class="cls-30" x="101.12" y="0">N</tspan><tspan class="cls-33" x="108.4" y="0">A</tspan><tspan class="cls-34" x="116.32" y="0">L</tspan></text><text class="cls-35" transform="translate(28.36 100.09)">Its all about Baking</text><rect class="cls-1" x="94.65" y="96.66" width="17.53" height="0.98" rx="0.49"/><rect class="cls-1" x="114.37" y="96.66" width="0.98" height="0.98" rx="0.49" transform="translate(229.73 194.29) rotate(-180)"/><rect class="cls-1" x="9.81" y="96.66" width="17.53" height="0.98" rx="0.49" transform="translate(37.16 194.29) rotate(-180)"/><rect class="cls-1" x="6.64" y="96.66" width="0.98" height="0.98" rx="0.49"/></svg>